{"asset":{"generator":"Khronos glTF Blender I/O v1.1.46","version":"2.0"},"scene":0,"scenes":[{"extras":{"glTF2ExportSettings":{"export_apply":1,"export_extras":1,"export_format":"GLTF_EMBEDDED","export_tangents":1}},"name":"Scene","nodes":[0,1,2,3,4]}],"nodes":[{"mesh":0,"name":"Cube"},{"name":"Camera","rotation":[0.483536034822464,0.33687159419059753,-0.20870360732078552,0.7804827094078064],"translation":[7.358891487121582,4.958309173583984,6.925790786743164]},{"mesh":1,"name":"Cube.001"},{"mesh":2,"name":"Cube.002","translation":[0,0,-0.02188584953546524]},{"mesh":3,"name":"Cube.003"}],"materials":[{"doubleSided":true,"emissiveFactor":[0.7991032600402832,0.014654213562607765,0.0046241395175457],"name":"Material","pbrMetallicRoughness":{}},{"emissiveFactor":[0,0,0],"name":"Material.002","pbrMetallicRoughness":{}},{"doubleSided":true,"emissiveFactor":[0.0023903653491288424,0.6268270611763,0.7991032600402832],"name":"Material.001","pbrMetallicRoughness":{}}],"meshes":[{"name":"Cube","primitives":[{"attributes":{"POSITION":0,"NORMAL":1,"TANGENT":2,"TEXCOORD_0":3},"indices":4,"material":0},{"attributes":{"POSITION":5,"NORMAL":6,"TANGENT":7,"TEXCOORD_0":8},"indices":9,"material":1}]},{"name":"Cube.001","primitives":[{"attributes":{"POSITION":10,"NORMAL":11,"TANGENT":12,"TEXCOORD_0":13},"indices":14,"material":2},{"attributes":{"POSITION":15,"NORMAL":16,"TANGENT":17,"TEXCOORD_0":18},"indices":19,"material":1}]},{"name":"Cube.002","primitives":[{"attributes":{"POSITION":20,"NORMAL":21,"TANGENT":22,"TEXCOORD_0":23},"indices":24,"material":0},{"attributes":{"POSITION":25,"NORMAL":26,"TANGENT":27,"TEXCOORD_0":28},"indices":29,"material":1}]},{"name":"Cube.003","primitives":[{"attributes":{"POSITION":30,"NORMAL":31,"TANGENT":32,"TEXCOORD_0":33},"indices":14,"material":2},{"attributes":{"POSITION":34,"NORMAL":35,"TANGENT":36,"TEXCOORD_0":37},"indices":19,"material":1}]}],"accessors":[{"bufferView":0,"componentType":5126,"count":1058,"max":[0.821587860584259,1.1222425699234009,0.6380241513252258],"min":[-0.821587860584259,-1.3177765607833862,-0.6307837963104248],"type":"VEC3"},{"bufferView":1,"componentType":5126,"count":1058,"type":"VEC3"},{"bufferView":2,"componentType":5126,"count":1058,"type":"VEC4"},{"bufferView":3,"componentType":5126,"count":1058,"type":"VEC2"},{"bufferView":4,"componentType":5123,"count":4752,"type":"SCALAR"},{"bufferView":5,"componentType":5126,"count":1058,"max":[0.8515869379043579,1.1522068977355957,0.6680232286453247],"min":[-0.8515869379043579,-1.347670316696167,-0.6607792377471924],"type":"VEC3"},{"bufferView":6,"componentType":5126,"count":1058,"type":"VEC3"},{"bufferView":7,"componentType":5126,"count":1058,"type":"VEC4"},{"bufferView":8,"componentType":5126,"count":1058,"type":"VEC2"},{"bufferView":9,"componentType":5123,"count":4752,"type":"SCALAR"},{"bufferView":10,"componentType":5126,"count":441,"max":[0.5777232646942139,0.9135403037071228,0.7459694147109985],"min":[-0.5777232646942139,0.18765351176261902,-0.04665180668234825],"type":"VEC3"},{"bufferView":11,"componentType":5126,"count":441,"type":"VEC3"},{"bufferView":12,"componentType":5126,"count":441,"type":"VEC4"},{"bufferView":13,"componentType":5126,"count":441,"type":"VEC2"},{"bufferView":14,"componentType":5123,"count":1488,"type":"SCALAR"},{"bufferView":15,"componentType":5126,"count":402,"max":[0.5777232646942139,0.915385365486145,0.7758970856666565],"min":[-0.5777232646942139,0.18765351176261902,-0.046644482761621475],"type":"VEC3"},{"bufferView":16,"componentType":5126,"count":402,"type":"VEC3"},{"bufferView":17,"componentType":5126,"count":402,"type":"VEC4"},{"bufferView":18,"componentType":5126,"count":402,"type":"VEC2"},{"bufferView":19,"componentType":5123,"count":1344,"type":"SCALAR"},{"bufferView":20,"componentType":5126,"count":419,"max":[0.6292083263397217,0.6792672276496887,-0.10129769891500473],"min":[-0.6292083859443665,-0.6094074845314026,-0.9142623543739319],"type":"VEC3"},{"bufferView":21,"componentType":5126,"count":419,"type":"VEC3"},{"bufferView":22,"componentType":5126,"count":419,"type":"VEC4"},{"bufferView":23,"componentType":5126,"count":419,"type":"VEC2"},{"bufferView":24,"componentType":5123,"count":1488,"type":"SCALAR"},{"bufferView":25,"componentType":5126,"count":422,"max":[0.6692009568214417,0.719261109828949,-0.06135385483503342],"min":[-0.6692010164260864,-0.6493855118751526,-0.9542598724365234],"type":"VEC3"},{"bufferView":26,"componentType":5126,"count":422,"type":"VEC3"},{"bufferView":27,"componentType":5126,"count":422,"type":"VEC4"},{"bufferView":28,"componentType":5126,"count":422,"type":"VEC2"},{"bufferView":29,"componentType":5123,"count":1488,"type":"SCALAR"},{"bufferView":30,"componentType":5126,"count":441,"max":[0.5777232646942139,0.9135403037071228,0.7459694147109985],"min":[-0.5777232646942139,0.18765351176261902,-0.04665180668234825],"type":"VEC3"},{"bufferView":31,"componentType":5126,"count":441,"type":"VEC3"},{"bufferView":32,"componentType":5126,"count":441,"type":"VEC4"},{"bufferView":33,"componentType":5126,"count":441,"type":"VEC2"},{"bufferView":34,"componentType":5126,"count":402,"max":[0.5777232646942139,0.915385365486145,0.7758970856666565],"min":[-0.5777232646942139,0.18765351176261902,-0.046644482761621475],"type":"VEC3"},{"bufferView":35,"componentType":5126,"count":402,"type":"VEC3"},{"bufferView":36,"componentType":5126,"count":402,"type":"VEC4"},{"bufferView":37,"componentType":5126,"count":402,"type":"VEC2"}],"bufferViews":[{"buffer":0,"byteLength":12696,"byteOffset":0},{"buffer":0,"byteLength":12696,"byteOffset":12696},{"buffer":0,"byteLength":16928,"byteOffset":25392},{"buffer":0,"byteLength":8464,"byteOffset":42320},{"buffer":0,"byteLength":9504,"byteOffset":50784},{"buffer":0,"byteLength":12696,"byteOffset":60288},{"buffer":0,"byteLength":12696,"byteOffset":72984},{"buffer":0,"byteLength":16928,"byteOffset":85680},{"buffer":0,"byteLength":8464,"byteOffset":102608},{"buffer":0,"byteLength":9504,"byteOffset":111072},{"buffer":0,"byteLength":5292,"byteOffset":120576},{"buffer":0,"byteLength":5292,"byteOffset":125868},{"buffer":0,"byteLength":7056,"byteOffset":131160},{"buffer":0,"byteLength":3528,"byteOffset":138216},{"buffer":0,"byteLength":2976,"byteOffset":141744},{"buffer":0,"byteLength":4824,"byteOffset":144720},{"buffer":0,"byteLength":4824,"byteOffset":149544},{"buffer":0,"byteLength":6432,"byteOffset":154368},{"buffer":0,"byteLength":3216,"byteOffset":160800},{"buffer":0,"byteLength":2688,"byteOffset":164016},{"buffer":0,"byteLength":5028,"byteOffset":166704},{"buffer":0,"byteLength":5028,"byteOffset":171732},{"buffer":0,"byteLength":6704,"byteOffset":176760},{"buffer":0,"byteLength":3352,"byteOffset":183464},{"buffer":0,"byteLength":2976,"byteOffset":186816},{"buffer":0,"byteLength":5064,"byteOffset":189792},{"buffer":0,"byteLength":5064,"byteOffset":194856},{"buffer":0,"byteLength":6752,"byteOffset":199920},{"buffer":0,"byteLength":3376,"byteOffset":206672},{"buffer":0,"byteLength":2976,"byteOffset":210048},{"buffer":0,"byteLength":5292,"byteOffset":213024},{"buffer":0,"byteLength":5292,"byteOffset":218316},{"buffer":0,"byteLength":7056,"byteOffset":223608},{"buffer":0,"byteLength":3528,"byteOffset":230664},{"buffer":0,"byteLength":4824,"byteOffset":234192},{"buffer":0,"byteLength":4824,"byteOffset":239016},{"buffer":0,"byteLength":6432,"byteOffset":243840},{"buffer":0,"byteLength":3216,"byteOffset":250272}],"buffers":[{"byteLength":253488,"uri":"data:application/octet-stream;base64,"}]}