{"asset":{"generator":"Khronos glTF Blender I/O v1.1.46","version":"2.0"},"scene":0,"scenes":[{"extras":{"glTF2ExportSettings":{"export_apply":1,"export_extras":1,"export_format":"GLTF_EMBEDDED","export_tangents":1}},"name":"Scene","nodes":[2,3,4]}],"nodes":[{"mesh":0,"name":"Cube.002","translation":[0,0,-0.02188584953546524]},{"mesh":1,"name":"Cube.003"},{"children":[0,1],"mesh":2,"name":"Cube"},{"name":"Camera","rotation":[0.483536034822464,0.33687159419059753,-0.20870360732078552,0.7804827094078064],"translation":[7.358891487121582,4.958309173583984,6.925790786743164]},{"name":"Empty","rotation":[0.42405590415000916,0.3682331442832947,-0.19414697587490082,0.8042933940887451],"scale":[4.868218421936035,4.868218898773193,4.868218898773193],"translation":[-1.091156244277954,0.5388335585594177,0.33453989028930664]}],"animations":[{"channels":[{"sampler":0,"target":{"node":2,"path":"rotation"}}],"name":"CubeAction","samplers":[{"input":30,"interpolation":"STEP","output":31}]}],"materials":[{"doubleSided":true,"emissiveFactor":[0.7991032600402832,0.014654213562607765,0.0046241395175457],"name":"Material","pbrMetallicRoughness":{}},{"emissiveFactor":[0,0,0],"name":"Material.002","pbrMetallicRoughness":{}},{"doubleSided":true,"emissiveFactor":[0.0023903653491288424,0.6268270611763,0.7991032600402832],"name":"Material.001","pbrMetallicRoughness":{}}],"meshes":[{"name":"Cube.002","primitives":[{"attributes":{"POSITION":0,"NORMAL":1,"TANGENT":2,"TEXCOORD_0":3},"indices":4,"material":0},{"attributes":{"POSITION":5,"NORMAL":6,"TANGENT":7,"TEXCOORD_0":8},"indices":9,"material":1}]},{"name":"Cube.003","primitives":[{"attributes":{"POSITION":10,"NORMAL":11,"TANGENT":12,"TEXCOORD_0":13},"indices":14,"material":2},{"attributes":{"POSITION":15,"NORMAL":16,"TANGENT":17,"TEXCOORD_0":18},"indices":19,"material":1}]},{"name":"Cube","primitives":[{"attributes":{"POSITION":20,"NORMAL":21,"TANGENT":22,"TEXCOORD_0":23},"indices":24,"material":0},{"attributes":{"POSITION":25,"NORMAL":26,"TANGENT":27,"TEXCOORD_0":28},"indices":29,"material":1}]}],"accessors":[{"bufferView":0,"componentType":5126,"count":418,"max":[0.6252090334892273,0.6752678155899048,-0.10529208183288574],"min":[-0.6252090930938721,-0.6054096817970276,-0.9102625846862793],"type":"VEC3"},{"bufferView":1,"componentType":5126,"count":418,"type":"VEC3"},{"bufferView":2,"componentType":5126,"count":418,"type":"VEC4"},{"bufferView":3,"componentType":5126,"count":418,"type":"VEC2"},{"bufferView":4,"componentType":5123,"count":1488,"type":"SCALAR"},{"bufferView":5,"componentType":5126,"count":420,"max":[0.665201723575592,0.715261697769165,-0.06534823775291443],"min":[-0.6652017831802368,-0.6453877091407776,-0.9502601623535156],"type":"VEC3"},{"bufferView":6,"componentType":5126,"count":420,"type":"VEC3"},{"bufferView":7,"componentType":5126,"count":420,"type":"VEC4"},{"bufferView":8,"componentType":5126,"count":420,"type":"VEC2"},{"bufferView":9,"componentType":5123,"count":1488,"type":"SCALAR"},{"bufferView":10,"componentType":5126,"count":437,"max":[0.587608814239502,0.9235399961471558,0.7459694147109985],"min":[-0.587608814239502,0.17765381932258606,-0.04665180668234825],"type":"VEC3"},{"bufferView":11,"componentType":5126,"count":437,"type":"VEC3"},{"bufferView":12,"componentType":5126,"count":437,"type":"VEC4"},{"bufferView":13,"componentType":5126,"count":437,"type":"VEC2"},{"bufferView":14,"componentType":5123,"count":1488,"type":"SCALAR"},{"bufferView":15,"componentType":5126,"count":402,"max":[0.587608814239502,0.9253773093223572,0.7858729958534241],"min":[-0.587608814239502,0.17765381932258606,-0.046642038971185684],"type":"VEC3"},{"bufferView":16,"componentType":5126,"count":402,"type":"VEC3"},{"bufferView":17,"componentType":5126,"count":402,"type":"VEC4"},{"bufferView":18,"componentType":5126,"count":402,"type":"VEC2"},{"bufferView":19,"componentType":5123,"count":1344,"type":"SCALAR"},{"bufferView":20,"componentType":5126,"count":1058,"max":[0.821587860584259,1.1222425699234009,0.6380241513252258],"min":[-0.821587860584259,-1.3177765607833862,-0.6307837963104248],"type":"VEC3"},{"bufferView":21,"componentType":5126,"count":1058,"type":"VEC3"},{"bufferView":22,"componentType":5126,"count":1058,"type":"VEC4"},{"bufferView":23,"componentType":5126,"count":1058,"type":"VEC2"},{"bufferView":24,"componentType":5123,"count":4752,"type":"SCALAR"},{"bufferView":25,"componentType":5126,"count":1058,"max":[0.8615866303443909,1.1621949672698975,0.6780229210853577],"min":[-0.8615866303443909,-1.3576349020004272,-0.6707776784896851],"type":"VEC3"},{"bufferView":26,"componentType":5126,"count":1058,"type":"VEC3"},{"bufferView":27,"componentType":5126,"count":1058,"type":"VEC4"},{"bufferView":28,"componentType":5126,"count":1058,"type":"VEC2"},{"bufferView":29,"componentType":5123,"count":4752,"type":"SCALAR"},{"bufferView":30,"componentType":5126,"count":1,"max":[0],"min":[0],"type":"SCALAR"},{"bufferView":31,"componentType":5126,"count":1,"type":"VEC4"}],"bufferViews":[{"buffer":0,"byteLength":5016,"byteOffset":0},{"buffer":0,"byteLength":5016,"byteOffset":5016},{"buffer":0,"byteLength":6688,"byteOffset":10032},{"buffer":0,"byteLength":3344,"byteOffset":16720},{"buffer":0,"byteLength":2976,"byteOffset":20064},{"buffer":0,"byteLength":5040,"byteOffset":23040},{"buffer":0,"byteLength":5040,"byteOffset":28080},{"buffer":0,"byteLength":6720,"byteOffset":33120},{"buffer":0,"byteLength":3360,"byteOffset":39840},{"buffer":0,"byteLength":2976,"byteOffset":43200},{"buffer":0,"byteLength":5244,"byteOffset":46176},{"buffer":0,"byteLength":5244,"byteOffset":51420},{"buffer":0,"byteLength":6992,"byteOffset":56664},{"buffer":0,"byteLength":3496,"byteOffset":63656},{"buffer":0,"byteLength":2976,"byteOffset":67152},{"buffer":0,"byteLength":4824,"byteOffset":70128},{"buffer":0,"byteLength":4824,"byteOffset":74952},{"buffer":0,"byteLength":6432,"byteOffset":79776},{"buffer":0,"byteLength":3216,"byteOffset":86208},{"buffer":0,"byteLength":2688,"byteOffset":89424},{"buffer":0,"byteLength":12696,"byteOffset":92112},{"buffer":0,"byteLength":12696,"byteOffset":104808},{"buffer":0,"byteLength":16928,"byteOffset":117504},{"buffer":0,"byteLength":8464,"byteOffset":134432},{"buffer":0,"byteLength":9504,"byteOffset":142896},{"buffer":0,"byteLength":12696,"byteOffset":152400},{"buffer":0,"byteLength":12696,"byteOffset":165096},{"buffer":0,"byteLength":16928,"byteOffset":177792},{"buffer":0,"byteLength":8464,"byteOffset":194720},{"buffer":0,"byteLength":9504,"byteOffset":203184},{"buffer":0,"byteLength":4,"byteOffset":212688},{"buffer":0,"byteLength":16,"byteOffset":212692}],"buffers":[{"byteLength":212708,"uri":"data:application/octet-stream;base64,"}]}