{"asset":{"generator":"Khronos glTF Blender I/O v1.1.46","version":"2.0"},"scene":0,"scenes":[{"extras":{"glTF2ExportSettings":{"export_apply":1,"export_extras":1,"export_format":"GLTF_EMBEDDED","export_tangents":1}},"name":"Scene","nodes":[2,3]}],"nodes":[{"mesh":0,"name":"Cube.002","translation":[0,0,-0.02188584953546524]},{"mesh":1,"name":"Cube.003"},{"children":[0,1],"mesh":2,"name":"Cube"},{"name":"Camera","rotation":[0.483536034822464,0.33687159419059753,-0.20870360732078552,0.7804827094078064],"translation":[7.358891487121582,4.958309173583984,6.925790786743164]}],"animations":[{"channels":[{"sampler":0,"target":{"node":2,"path":"rotation"}}],"name":"CubeAction","samplers":[{"input":30,"interpolation":"LINEAR","output":31}]}],"materials":[{"doubleSided":true,"emissiveFactor":[0.7991032600402832,0.0016947014955803752,0],"name":"Material","pbrMetallicRoughness":{}},{"emissiveFactor":[0,0,0],"name":"Material.002","pbrMetallicRoughness":{}},{"doubleSided":true,"emissiveFactor":[0,0.19368843734264374,0.4200211465358734],"name":"Material.001","pbrMetallicRoughness":{}}],"meshes":[{"name":"Cube.002","primitives":[{"attributes":{"POSITION":0,"NORMAL":1,"TANGENT":2,"TEXCOORD_0":3},"indices":4,"material":0},{"attributes":{"POSITION":5,"NORMAL":6,"TANGENT":7,"TEXCOORD_0":8},"indices":9,"material":1}]},{"name":"Cube.003","primitives":[{"attributes":{"POSITION":10,"NORMAL":11,"TANGENT":12,"TEXCOORD_0":13},"indices":14,"material":2},{"attributes":{"POSITION":15,"NORMAL":16,"TANGENT":17,"TEXCOORD_0":18},"indices":19,"material":1}]},{"name":"Cube","primitives":[{"attributes":{"POSITION":20,"NORMAL":21,"TANGENT":22,"TEXCOORD_0":23},"indices":24,"material":0},{"attributes":{"POSITION":25,"NORMAL":26,"TANGENT":27,"TEXCOORD_0":28},"indices":29,"material":1}]}],"accessors":[{"bufferView":0,"componentType":5126,"count":420,"max":[0.6352072358131409,0.6852663159370422,-0.09530611336231232],"min":[-0.6352072954177856,-0.6154041886329651,-0.9202619791030884],"type":"VEC3"},{"bufferView":1,"componentType":5126,"count":420,"type":"VEC3"},{"bufferView":2,"componentType":5126,"count":420,"type":"VEC4"},{"bufferView":3,"componentType":5126,"count":420,"type":"VEC2"},{"bufferView":4,"componentType":5123,"count":1488,"type":"SCALAR"},{"bufferView":5,"componentType":5126,"count":424,"max":[0.735188901424408,0.7852510213851929,0.004553504288196564],"min":[-0.7351889610290527,-0.7153492569923401,-1.0202559232711792],"type":"VEC3"},{"bufferView":6,"componentType":5126,"count":424,"type":"VEC3"},{"bufferView":7,"componentType":5126,"count":424,"type":"VEC4"},{"bufferView":8,"componentType":5126,"count":424,"type":"VEC2"},{"bufferView":9,"componentType":5123,"count":1488,"type":"SCALAR"},{"bufferView":10,"componentType":5126,"count":441,"max":[0.6469221711158752,0.9835381507873535,0.7459694147109985],"min":[-0.6469221711158752,0.11765564978122711,-0.04665180668234825],"type":"VEC3"},{"bufferView":11,"componentType":5126,"count":441,"type":"VEC3"},{"bufferView":12,"componentType":5126,"count":441,"type":"VEC4"},{"bufferView":13,"componentType":5126,"count":441,"type":"VEC2"},{"bufferView":14,"componentType":5123,"count":1488,"type":"SCALAR"},{"bufferView":15,"componentType":5126,"count":408,"max":[0.6469221711158752,0.9853755235671997,0.84572833776474],"min":[-0.6469221711158752,0.11765564978122711,-0.04662739112973213],"type":"VEC3"},{"bufferView":16,"componentType":5126,"count":408,"type":"VEC3"},{"bufferView":17,"componentType":5126,"count":408,"type":"VEC4"},{"bufferView":18,"componentType":5126,"count":408,"type":"VEC2"},{"bufferView":19,"componentType":5123,"count":1344,"type":"SCALAR"},{"bufferView":20,"componentType":5126,"count":1058,"max":[0.821587860584259,1.1222425699234009,0.6380241513252258],"min":[-0.821587860584259,-1.3177765607833862,-0.6307837963104248],"type":"VEC3"},{"bufferView":21,"componentType":5126,"count":1058,"type":"VEC3"},{"bufferView":22,"componentType":5126,"count":1058,"type":"VEC4"},{"bufferView":23,"componentType":5126,"count":1058,"type":"VEC2"},{"bufferView":24,"componentType":5123,"count":4752,"type":"SCALAR"},{"bufferView":25,"componentType":5126,"count":1058,"max":[0.9215848445892334,1.2221235036849976,0.7380211353302002],"min":[-0.9215848445892334,-1.4174225330352783,-0.7307685613632202],"type":"VEC3"},{"bufferView":26,"componentType":5126,"count":1058,"type":"VEC3"},{"bufferView":27,"componentType":5126,"count":1058,"type":"VEC4"},{"bufferView":28,"componentType":5126,"count":1058,"type":"VEC2"},{"bufferView":29,"componentType":5123,"count":4752,"type":"SCALAR"},{"bufferView":30,"componentType":5126,"count":61,"max":[5],"min":[0],"type":"SCALAR"},{"bufferView":31,"componentType":5126,"count":61,"type":"VEC4"}],"bufferViews":[{"buffer":0,"byteLength":5040,"byteOffset":0},{"buffer":0,"byteLength":5040,"byteOffset":5040},{"buffer":0,"byteLength":6720,"byteOffset":10080},{"buffer":0,"byteLength":3360,"byteOffset":16800},{"buffer":0,"byteLength":2976,"byteOffset":20160},{"buffer":0,"byteLength":5088,"byteOffset":23136},{"buffer":0,"byteLength":5088,"byteOffset":28224},{"buffer":0,"byteLength":6784,"byteOffset":33312},{"buffer":0,"byteLength":3392,"byteOffset":40096},{"buffer":0,"byteLength":2976,"byteOffset":43488},{"buffer":0,"byteLength":5292,"byteOffset":46464},{"buffer":0,"byteLength":5292,"byteOffset":51756},{"buffer":0,"byteLength":7056,"byteOffset":57048},{"buffer":0,"byteLength":3528,"byteOffset":64104},{"buffer":0,"byteLength":2976,"byteOffset":67632},{"buffer":0,"byteLength":4896,"byteOffset":70608},{"buffer":0,"byteLength":4896,"byteOffset":75504},{"buffer":0,"byteLength":6528,"byteOffset":80400},{"buffer":0,"byteLength":3264,"byteOffset":86928},{"buffer":0,"byteLength":2688,"byteOffset":90192},{"buffer":0,"byteLength":12696,"byteOffset":92880},{"buffer":0,"byteLength":12696,"byteOffset":105576},{"buffer":0,"byteLength":16928,"byteOffset":118272},{"buffer":0,"byteLength":8464,"byteOffset":135200},{"buffer":0,"byteLength":9504,"byteOffset":143664},{"buffer":0,"byteLength":12696,"byteOffset":153168},{"buffer":0,"byteLength":12696,"byteOffset":165864},{"buffer":0,"byteLength":16928,"byteOffset":178560},{"buffer":0,"byteLength":8464,"byteOffset":195488},{"buffer":0,"byteLength":9504,"byteOffset":203952},{"buffer":0,"byteLength":244,"byteOffset":213456},{"buffer":0,"byteLength":976,"byteOffset":213700}],"buffers":[{"byteLength":214676,"uri":"data:application/octet-stream;base64,"}]}